PathFileType	4	(X/Y/Z)	E:\Qualisys_Data\Carbon_Farble_Plate\Data\Amateur_Runner\S14\T1\S14T1V12_c3d.trc
DataRate	CameraRate	NumFrames	NumMarkers	Units	OrigDataRate	OrigDataStartFrame	OrigNumFrames
200.000000	200.000000	4	39	mm	200.000000	84	338
Frame#	Time	LSHO			RSHO			LICST			RICST			LASIS			LHEEL			RASIS			LTROC			RTROC			SACR			LTH1			LSK4			LTH2			LTH3			RHM5			LSK2			LTH4			RTH1			LTOE			RTH2			RTH3			RTH4			LLEP			RLEP			LSK1			LSK3			RSK1			LHM5			RSK2			LFT1			RSK3			RSK4			LLME			RLME			RTOE			RHEEL			RFT1			RFT2			LFT2			
		X1	Y1	Z1	X2	Y2	Z2	X3	Y3	Z3	X4	Y4	Z4	X5	Y5	Z5	X6	Y6	Z6	X7	Y7	Z7	X8	Y8	Z8	X9	Y9	Z9	X10	Y10	Z10	X11	Y11	Z11	X12	Y12	Z12	X13	Y13	Z13	X14	Y14	Z14	X15	Y15	Z15	X16	Y16	Z16	X17	Y17	Z17	X18	Y18	Z18	X19	Y19	Z19	X20	Y20	Z20	X21	Y21	Z21	X22	Y22	Z22	X23	Y23	Z23	X24	Y24	Z24	X25	Y25	Z25	X26	Y26	Z26	X27	Y27	Z27	X28	Y28	Z28	X29	Y29	Z29	X30	Y30	Z30	X31	Y31	Z31	X32	Y32	Z32	X33	Y33	Z33	X34	Y34	Z34	X35	Y35	Z35	X36	Y36	Z36	X37	Y37	Z37	X38	Y38	Z38	X39	Y39	Z39	

85	0.42	-1109.87158203125	1487.17431640625	-475.4528198242188	-993.4403686523438	1482.92822265625	-207.1328125	-1085.787353515625	1034.207397460938	-444.9418334960938	-1035.305419921875	1033.830444335938	-177.9493713378906	-1042.590087890625	983.9649047851562	-421.5862731933594	-979.7464599609376	119.4648895263672	-332.3586120605469	-1019.205932617188	985.9251708984376	-194.2755584716797	-1174.73046875	917.927001953125	-460.538330078125	-1179.599975585938	964.9828491210938	-134.4311981201172	-1197.90234375	1048.052734375	-301.2239990234375	-1010.1005859375	708.1852416992188	-465.3972473144531	-996.97265625	338.5810546875	-411.472900390625	-1077.218139648438	680.5028686523438	-435.6076354980469	-960.7099609375	624.5576171875	-440.0436096191406	-1603.820068359375	160.9427337646484	-156.4801177978516	-1006.113098144531	436.5638427734375	-427.5438537597656	-1032.642456054688	595.3886108398438	-417.6120910644531	-1143.731689453125	696.5945434570312	-142.78515625	-725.7274780273438	171.808837890625	-371.7034606933594	-1214.199829101562	730.7854614257812	-133.1227874755859	-1184.114990234375	607.1063842773438	-169.9651031494141	-1260.0517578125	641.30517578125	-153.8606262207031	-962.160400390625	551.9055786132812	-426.8453674316406	-1278.209106445312	567.4413452148438	-161.3185729980469	-924.4401245117188	444.40087890625	-428.2626037597656	-916.9949340820312	343.3655700683594	-416.8973083496094	-1349.490234375	463.1857299804688	-157.4723205566406	-789.2218627929688	134.5259857177734	-426.3472900390625	-1410.705810546875	523.2382202148438	-161.1390533447266	-957.4415283203124	101.0256195068359	-305.3991088867188	-1427.220947265625	394.0659484863281	-165.6102142333984	-1477.9794921875	454.6458435058594	-171.4919738769531	-930.2271728515624	160.9925537109375	-394.5164794921875	-1584.003051757812	310.5903015136719	-185.7396545410156	-1562.75439453125	94.29335784912108	-211.1227874755859	-1613.171264648438	347.5902099609375	-242.9509124755859	-1632.312622070312	323.8886108398438	-276.4725036621094	-1640.035034179688	340.6645202636719	-219.7848815917969	-971.3658447265624	92.96923065185548	-358.9832458496094
86	0.425	-1093.456176757812	1485.53857421875	-476.5982360839844	-977.8053588867188	1481.5546875	-207.8918151855469	-1069.914672851562	1032.207275390625	-444.7983703613281	-1019.495178222656	1032.640869140625	-177.9124603271484	-1026.361083984375	981.7300415039062	-421.0008544921875	-958.5385131835938	115.3524398803711	-331.3309326171875	-1003.093811035156	985.354248046875	-193.6987457275391	-1158.481323242188	914.9222412109376	-460.0666809082031	-1163.1513671875	963.44189453125	-134.2544403076172	-1182.348266601562	1046.046020507812	-301.4744262695312	-996.6651000976562	703.768798828125	-466.638671875	-980.760498046875	334.115966796875	-409.8741760253906	-1063.48046875	677.0606689453125	-434.0954284667969	-947.4749755859376	619.6622314453125	-439.8101806640625	-1591.777221679688	166.5113677978516	-156.5302734375	-991.4140014648438	432.4541625976562	-425.8794860839844	-1019.75341796875	591.5521850585938	-415.9195861816406	-1125.635620117188	694.565185546875	-143.4757995605469	-705.9513549804688	172.8700408935547	-372.123779296875	-1196.337646484375	728.0770874023438	-133.4287567138672	-1165.45458984375	604.9734497070312	-170.0587158203125	-1241.872192382812	638.6947021484375	-153.4691467285156	-948.9068603515624	547.8532104492188	-425.9563293457031	-1259.774658203125	565.2803344726562	-161.1367797851562	-909.7882690429688	441.7415161132812	-427.2031860351562	-900.4136962890625	340.5351867675781	-415.6178894042969	-1333.207641601562	462.7582092285156	-157.6263427734375	-769.1995239257812	134.5213775634766	-426.2555236816406	-1392.56103515625	524.1683349609375	-160.4298858642578	-936.0027465820312	97.4372329711914	-304.8865661621094	-1413.031982421875	396.1958923339844	-166.2762908935547	-1462.65771484375	457.6353454589844	-171.56689453125	-910.6747436523438	157.0854339599609	-392.8466796875	-1570.893432617188	315.9919128417969	-186.10205078125	-1551.83203125	99.24964141845705	-210.0934906005859	-1600.847045898438	352.7221374511719	-243.5152893066406	-1620.65625	329.1214294433594	-276.8647155761719	-1627.360595703125	346.1592712402344	-220.4028472900391	-950.1387939453124	88.9869613647461	-357.9577026367188
87	0.43	-1077.237548828125	1483.583862304688	-477.6477661132812	-961.9329223632812	1480.2255859375	-208.7400970458984	-1053.711547851562	1029.708374023438	-444.893310546875	-1003.652404785156	1031.575805664062	-177.9440765380859	-1009.695190429688	979.6964721679688	-420.9382934570312	-939.2516479492188	111.7037048339844	-330.22021484375	-987.1107788085938	984.147216796875	-193.8057250976562	-1142.112670898438	911.8524780273438	-459.8489685058594	-1146.7275390625	961.6660766601562	-134.3418121337891	-1166.515869140625	1043.697021484375	-301.9993896484375	-983.2295532226562	698.574951171875	-468.1529235839844	-964.6383666992188	330.38818359375	-408.5678405761719	-1050.046508789062	674.0929565429688	-433.5604248046875	-934.35888671875	615.5402221679688	-439.7735900878906	-1580.284301757812	172.3970642089844	-156.40478515625	-976.557373046875	428.5458679199219	-424.4605407714844	-1006.616394042969	588.4708862304688	-414.7998352050781	-1107.247680664062	692.4554443359375	-144.2070465087891	-687.8176879882812	173.2295532226562	-372.3858947753906	-1177.794921875	725.6425170898438	-132.8617553710938	-1146.5205078125	602.97021484375	-170.4243316650391	-1223.14111328125	635.9756469726562	-153.3913879394531	-935.9083251953124	544.2229614257812	-425.3784790039062	-1241.373168945312	562.4125366210938	-160.9676361083984	-895.340576171875	438.761474609375	-426.1005859375	-884.8519897460938	337.8500061035156	-414.8864135742188	-1316.52880859375	461.5655822753906	-158.0484313964844	-750.4652709960938	133.7131958007812	-426.2078857421875	-1374.413208007812	524.7139892578125	-160.5485229492188	-916.0073852539062	94.10718536376952	-303.2315673828125	-1397.819213867188	396.4512939453125	-167.6524200439453	-1445.77587890625	460.0213928222656	-172.2010498046875	-891.9351806640625	153.9045257568359	-391.7995300292969	-1558.181762695312	321.1273193359375	-186.9553833007812	-1541.601196289062	104.6924591064453	-210.7842102050781	-1587.384643554688	357.984130859375	-243.8726348876953	-1607.99072265625	334.6371154785156	-277.4228820800781	-1614.5263671875	351.88232421875	-220.7979278564453	-930.2609252929688	85.31890106201172	-356.5932922363281
88	0.435	-1060.97705078125	1481.252563476562	-478.9803771972656	-946.2621459960938	1478.453735351562	-209.6265106201172	-1037.54931640625	1027.1376953125	-444.9492797851562	-988.2589111328124	1030.324829101562	-177.9708099365234	-993.4420776367188	977.3076171875	-420.4099426269531	-920.960693359375	107.904670715332	-328.5089721679688	-970.8450927734376	982.772216796875	-193.442138671875	-1126.420288085938	908.2879638671876	-459.4262084960938	-1130.728271484375	959.5440673828124	-133.9794616699219	-1150.625732421875	1041.263549804688	-302.5259704589844	-970.0316162109376	694.4304809570312	-469.255615234375	-948.7359008789062	327.0402221679688	-407.4862060546875	-1036.107788085938	670.8126831054688	-432.3175048828125	-921.669189453125	611.0008544921875	-440.1716003417969	-1567.771606445312	177.7500610351562	-156.7241516113281	-961.6663818359376	424.8939819335938	-422.9914245605469	-993.3361206054688	585.2349853515625	-413.1515502929688	-1088.66357421875	689.6950073242188	-145.1676025390625	-670.8516845703125	172.8502807617188	-372.4575805664062	-1159.503540039062	722.378173828125	-132.6109161376953	-1127.953857421875	600.0814208984375	-170.5134735107422	-1204.22607421875	632.4856567382812	-153.3483123779297	-922.5026245117188	540.4222412109375	-424.5254211425781	-1221.994750976562	559.7544555664062	-160.669921875	-880.7195434570312	435.5773010253906	-424.8651123046875	-869.1673583984375	334.8056640625	-413.6116638183594	-1299.824584960938	460.2733764648438	-158.0645141601562	-733.3112182617188	132.8481597900391	-425.7868347167969	-1356.369873046875	524.9254150390625	-160.3529968261719	-897.33544921875	90.6686782836914	-302.0110168457031	-1382.381713867188	396.6897583007812	-167.8507995605469	-1428.630981445312	461.8245849609375	-172.3096160888672	-874.783447265625	151.0332336425781	-390.3565979003906	-1543.906982421875	325.9554443359375	-187.5902862548828	-1530.0908203125	109.1961288452148	-210.3014678955078	-1573.93115234375	363.4205932617188	-244.5787963867188	-1594.822387695312	339.7947082519531	-277.6041259765625	-1600.878784179688	357.2796325683594	-221.3343811035156	-912.0862426757812	81.57520294189453	-354.896728515625
